<?xml version="1.0" encoding="UTF-8"?>
<svg width="29px" height="34px" viewBox="0 0 29 34" version="1.1" xmlns="http://www.w3.org/2000/svg" xmlns:xlink="http://www.w3.org/1999/xlink">
    <!-- Generator: Sketch 62 (91390) - https://sketch.com -->
    <title>Shape</title>
    <desc>Created with Sketch.</desc>
    <g id="final" stroke="none" stroke-width="1" fill="none" fill-rule="evenodd">
        <g id="6" transform="translate(-1281.000000, -34.000000)" fill="#B8A36A" fill-rule="nonzero">
            <g id="Хедер">
                <g id="Корзина" transform="translate(1281.000000, 33.000000)">
                    <g id="Shape">
                        <path d="M14.4066408,1 C11.4066408,1 9.00664079,3.17964286 9.00664079,5.85714286 L9.00664079,9.5 L3.60664079,9.5 C2.99014098,9.49655251 2.47136485,9.96638458 2.40664079,10.5867857 L0.00664079466,33.6582143 C-0.0292060555,34.0017169 0.0812124801,34.3444117 0.310257974,34.60052 C0.539303469,34.8566283 0.865297138,35.0019099 1.20664079,35.0000186 L27.6066408,35.0000186 C27.9479845,35.0019099 28.2739781,34.8566283 28.5030236,34.60052 C28.7320691,34.3444117 28.8424876,34.0017169 28.8066408,33.6582143 L26.4066408,10.5867857 C26.3419167,9.96638458 25.8231406,9.49655251 25.2066408,9.5 L19.8066408,9.5 L19.8066408,5.85714286 C19.8066408,3.17964286 17.4066408,1 14.4066408,1 Z M11.4066408,5.85714286 C11.4066408,4.51535714 12.7506408,3.42857143 14.4066408,3.42857143 C16.0626408,3.42857143 17.4066408,4.51535714 17.4066408,5.85714286 L17.4066408,9.5 L11.4066408,9.5 L11.4066408,5.85714286 Z M24.1266408,11.9285714 L26.2746408,32.5714286 L2.53864079,32.5714286 L4.68664079,11.9285714 L9.00664079,11.9285714 L9.00664079,14.3571429 C9.00664079,15.0277743 9.54389909,15.5714286 10.2066408,15.5714286 C10.8693825,15.5714286 11.4066408,15.0277743 11.4066408,14.3571429 L11.4066408,11.9285714 L17.4066408,11.9285714 L17.4066408,14.3571429 C17.4066408,15.0277743 17.9438991,15.5714286 18.6066408,15.5714286 C19.2693825,15.5714286 19.8066408,15.0277743 19.8066408,14.3571429 L19.8066408,11.9285714 L24.1266408,11.9285714 Z"></path>
                    </g>
                </g>
            </g>
        </g>
    </g>
</svg>