<?xml version="1.0" encoding="UTF-8"?>
<svg xmlns="http://www.w3.org/2000/svg" 
    xmlns:xlink="http://www.w3.org/1999/xlink" width="48pt" height="48pt" viewBox="0 0 58 68" version="1.1">
    <g id="surface1">
        <path style=" stroke:none;fill-rule:nonzero;fill:rgb(72.156863%,63.921569%,41.568627%);fill-opacity:1;" d="M 28.8125 0 C 22.8125 0 18.011719 4.359375 18.011719 9.714844 L 18.011719 17 L 7.214844 17 C 5.980469 16.992188 4.941406 17.933594 4.8125 19.171875 L 0.0117188 65.316406 C -0.0585938 66.003906 0.164062 66.6875 0.621094 67.199219 C 1.078125 67.714844 1.730469 68.003906 2.414062 68 L 55.214844 68 C 55.894531 68.003906 56.546875 67.714844 57.007812 67.199219 C 57.464844 66.6875 57.683594 66.003906 57.613281 65.316406 L 52.8125 19.171875 C 52.683594 17.933594 51.644531 16.992188 50.414062 17 L 39.613281 17 L 39.613281 9.714844 C 39.613281 4.359375 34.8125 0 28.8125 0 Z M 22.8125 9.714844 C 22.8125 7.03125 25.5 4.855469 28.8125 4.855469 C 32.125 4.855469 34.8125 7.03125 34.8125 9.714844 L 34.8125 17 L 22.8125 17 Z M 48.253906 21.855469 L 52.550781 63.144531 L 5.078125 63.144531 L 9.375 21.855469 L 18.011719 21.855469 L 18.011719 26.714844 C 18.011719 28.054688 19.085938 29.144531 20.414062 29.144531 C 21.738281 29.144531 22.8125 28.054688 22.8125 26.714844 L 22.8125 21.855469 L 34.8125 21.855469 L 34.8125 26.714844 C 34.8125 28.054688 35.886719 29.144531 37.214844 29.144531 C 38.539062 29.144531 39.613281 28.054688 39.613281 26.714844 L 39.613281 21.855469 Z M 48.253906 21.855469 "/>
    </g>
</svg>
