<?xml version="1.0" encoding="UTF-8"?>
<svg width="92px" height="92px" viewBox="0 0 92 92" version="1.1" xmlns="http://www.w3.org/2000/svg" xmlns:xlink="http://www.w3.org/1999/xlink">
    <!-- Generator: Sketch 62 (91390) - https://sketch.com -->
    <title>Group 11</title>
    <desc>Created with Sketch.</desc>
    <g id="final" stroke="none" stroke-width="1" fill="none" fill-rule="evenodd">
        <g id="Очистить-" transform="translate(-674.000000, -361.000000)">
            <g id="Group-11" transform="translate(674.000000, 361.000000)">
                <circle id="Oval" fill-opacity="0.269094187" fill="#B8A36A" cx="46" cy="46" r="46"></circle>
                <g id="Shape-2" transform="translate(24.000000, 29.000000)" fill-rule="nonzero" stroke="#B8A36A" stroke-width="2">
                    <path d="M43.5125289,20.2217599 C44.098987,19.4225088 44.4588591,18.3042646 44.4588591,17.0459746 C44.4588591,15.7551487 44.0789941,14.6128563 43.4652124,13.8093613 C44.4795184,13.0935719 44.9993336,11.9335968 44.9993336,10.335802 C44.9993336,8.28533389 40.9954238,0 22.5006664,0 C4.00390972,0 0,8.28462659 0,10.335802 C0,11.9335968 0.519815177,13.0935719 1.53478763,13.8093613 C0.921005865,14.6128563 0.541140928,15.7551487 0.541140928,17.0459746 C0.541140928,18.3042646 0.901012973,19.4225088 1.48747112,20.2217599 C0.502488004,20.9403786 0.000666429714,22.0911587 0.000666429714,23.664198 C0.000666429714,25.7153734 4.00457615,34 22.5013329,34 C40.9960903,34 45,25.7153734 45,23.664198 C44.9993336,22.0904514 44.497512,20.9410859 43.5125289,20.2217599 Z M5.10135225,19.3539006 C4.58125209,19.3539006 4,18.3665072 4,17.0452673 C4,15.7233202 4.58125209,14.7352195 5.10135225,14.7352195 L39.8986477,14.7352195 C40.4187479,14.7352195 41,15.7226129 41,17.0452673 C41,18.3665072 40.4187479,19.3539006 39.8986477,19.3539006 L5.10135225,19.3539006 Z" id="Shape"></path>
                </g>
            </g>
        </g>
    </g>
</svg>