<?xml version="1.0" encoding="UTF-8"?>
<svg width="21px" height="21px" viewBox="0 0 21 21" version="1.1" xmlns="http://www.w3.org/2000/svg" xmlns:xlink="http://www.w3.org/1999/xlink">
    <!-- Generator: Sketch 62 (91390) - https://sketch.com -->
    <title>диаметр</title>
    <desc>Created with Sketch.</desc>
    <g id="final" stroke="none" stroke-width="1" fill="none" fill-rule="evenodd">
        <g id="Торты-" transform="translate(-880.000000, -538.000000)" fill="#1E2F42" fill-rule="nonzero">
            <g id="Торт-1" transform="translate(880.000000, 340.000000)">
                <g id="Описание" transform="translate(0.000000, 39.000000)">
                    <g id="диаметр" transform="translate(0.000000, 159.000000)">
                        <g id="Group" transform="translate(0.000000, 0.148825)">
                            <path d="M10.5,0.0845086667 C4.70666461,0.0845086667 0,4.68657233 0,10.3511753 C0,16.015762 4.70666461,20.617842 10.5,20.617842 C16.2933368,20.617842 21,16.015762 21,10.3511753 C21,4.68657233 16.2933368,0.0845086667 10.5,0.0845086667 Z M10.5,1.017842 C15.7774623,1.017842 20.0454545,5.190983 20.0454545,10.3511753 C20.0454545,15.5113653 15.7774623,19.6845087 10.5,19.6845087 C5.2225363,19.6845087 0.954545455,15.5113653 0.954545455,10.3511753 C0.954545455,5.190983 5.2225363,1.017842 10.5,1.017842 Z M4.72798295,4.28450867 C4.48201779,4.30717503 4.29438927,4.50961255 4.29540661,4.75117533 L4.29540661,7.55117533 C4.29302032,7.71947209 4.38345185,7.8760133 4.53212113,7.96085627 C4.68079042,8.04569924 4.86466413,8.04569924 5.01333341,7.96085627 C5.1620027,7.8760133 5.25243423,7.71947209 5.25,7.55117533 L5.25,5.874092 L15.0340909,15.4845087 L13.3636364,15.4845087 C13.1915147,15.4821285 13.0314157,15.5705505 12.9446445,15.715916 C12.8578733,15.8612815 12.8578733,16.0410691 12.9446445,16.1864347 C13.0314157,16.3318002 13.1915147,16.4202221 13.3636364,16.4178889 L16.2272727,16.4178889 C16.4908523,16.4178889 16.7045191,16.2088975 16.7046563,15.9511753 L16.7046563,13.1511753 C16.7075064,13.0167771 16.6510549,12.8876572 16.5496483,12.7968832 C16.4482417,12.7061092 16.311729,12.6624975 16.175071,12.677217 C15.929182,12.7036374 15.7446798,12.9093591 15.75,13.1511753 L15.75,14.864717 L5.92862216,5.217842 L7.63636364,5.217842 C7.80848532,5.22022214 7.96858429,5.1318002 8.0553555,4.98643467 C8.14212672,4.84106915 8.14212672,4.66128152 8.0553555,4.515916 C7.96858429,4.37055047 7.80848532,4.28212853 7.63636364,4.28450867 L4.77272727,4.28450867 C4.7578207,4.28382477 4.74288953,4.28382477 4.72798295,4.28450867 Z" id="Shape"></path>
                        </g>
                    </g>
                </g>
            </g>
        </g>
    </g>
</svg>