<svg width="12" height="17" viewBox="0 0 12 17" fill="none" xmlns="http://www.w3.org/2000/svg">
<path fill-rule="evenodd" clip-rule="evenodd" d="M6.0274 0C9.31507 0 12 2.69798 12 6.05668C12 8.80972 10.8493 9.63563 9.09589 12.4437L6.41096 16.7935C6.24658 17.0688 5.80822 17.0688 5.64384 16.7935L2.9589 12.4437C1.20548 9.63563 0 8.80972 0 6.05668C0 2.69798 2.68493 0 6.0274 0ZM6.0274 2.64292C7.89041 2.64292 9.42466 4.18462 9.42466 6.05668C9.42466 7.92875 7.89041 9.47045 6.0274 9.47045C4.16438 9.47045 2.63014 7.92875 2.63014 6.05668C2.63014 4.18462 4.16438 2.64292 6.0274 2.64292Z" fill="black"/>
</svg>
