<?xml version="1.0" encoding="UTF-8"?>
<svg width="21px" height="21px" viewBox="0 0 21 21" version="1.1" xmlns="http://www.w3.org/2000/svg" xmlns:xlink="http://www.w3.org/1999/xlink">
    <!-- Generator: Sketch 62 (91390) - https://sketch.com -->
    <title>люди</title>
    <desc>Created with Sketch.</desc>
    <g id="final" stroke="none" stroke-width="1" fill="none" fill-rule="evenodd">
        <g id="Торты-" transform="translate(-970.000000, -538.000000)" fill="#1E2F42" fill-rule="nonzero">
            <g id="Торт-1" transform="translate(880.000000, 340.000000)">
                <g id="Описание" transform="translate(0.000000, 39.000000)">
                    <g id="люди" transform="translate(90.000000, 159.000000)">
                        <g id="Group">
                            <g>
                                <path d="M18.5455696,15.8762658 C18.5455696,15.878481 18.5455696,15.8829114 18.5455696,15.8851266 C18.5655063,15.8098101 18.585443,15.7367089 18.6053797,15.6613924 C18.4658228,15.878481 18.3196203,16.0911392 18.164557,16.2971519 C18.1468354,16.3193038 18.1313291,16.3414557 18.1136076,16.3636076 C18.071519,16.4189873 18.1800633,16.2816456 18.1113924,16.368038 C18.0737342,16.4167722 18.0360759,16.4655063 17.9962025,16.5120253 C17.9142405,16.6117089 17.8322785,16.7113924 17.7481013,16.8066456 C17.4158228,17.185443 17.056962,17.5398734 16.671519,17.8632911 C16.578481,17.943038 16.4810127,18.0205696 16.3857595,18.0958861 C16.3702532,18.1091772 16.321519,18.1490506 16.3968354,18.0892405 C16.3702532,18.1091772 16.3436709,18.1291139 16.3170886,18.1512658 C16.2639241,18.1911392 16.2085443,18.2310127 16.1553797,18.2708861 C15.9471519,18.421519 15.7300633,18.5655063 15.5107595,18.7006329 C15.3003165,18.8291139 15.0832278,18.9509494 14.8617089,19.0639241 C14.7509494,19.121519 14.6401899,19.1746835 14.5272152,19.2278481 C14.4762658,19.2522152 14.4253165,19.2743671 14.3721519,19.2987342 C14.3411392,19.3120253 14.3101266,19.3253165 14.2791139,19.3408228 C14.2370253,19.3585443 14.1905063,19.3806962 14.2591772,19.3496835 C13.7297468,19.5889241 13.1560127,19.7528481 12.5911392,19.8813291 C12.7772152,20.0231013 12.9655063,20.1670886 13.1515823,20.3088608 C13.1515823,19.5113924 13.1515823,18.7161392 13.1515823,17.9186709 C13.1515823,17.1012658 13.1737342,16.2816456 13.1493671,15.4642405 C13.1183544,14.396519 12.7528481,13.3620253 11.9797468,12.6066456 C11.9509494,12.8392405 11.9199367,13.0696203 11.8911392,13.3022152 C11.9199367,13.2889241 11.9531646,13.2689873 11.9841772,13.2601266 C11.981962,13.2601266 11.9110759,13.2889241 11.9575949,13.2712025 C11.9731013,13.264557 11.9908228,13.2579114 12.0063291,13.2512658 C12.0816456,13.2202532 12.1591772,13.1936709 12.2367089,13.1670886 C12.378481,13.1183544 12.5246835,13.078481 12.6708861,13.043038 C12.8281646,13.0053797 12.9876582,12.9721519 13.1493671,12.9455696 C13.1870253,12.9389241 13.2246835,12.9344937 13.2623418,12.9278481 C13.2822785,12.9256329 13.3,12.9234177 13.3199367,12.9189873 C13.3132911,12.9189873 13.2468354,12.9278481 13.2977848,12.9212025 C13.3886076,12.9101266 13.4794304,12.8990506 13.5702532,12.8924051 C13.9136076,12.8613924 14.256962,12.8503165 14.6003165,12.856962 C14.7642405,12.8591772 14.9281646,12.868038 15.0920886,12.8791139 C15.1762658,12.8857595 15.2582278,12.8924051 15.3401899,12.9012658 C15.3778481,12.9056962 15.4155063,12.9101266 15.4531646,12.914557 C15.4708861,12.9167722 15.4908228,12.9189873 15.5085443,12.9212025 C15.5772152,12.9300633 15.435443,12.9101266 15.5018987,12.9212025 C15.8075949,12.9699367 16.1066456,13.0275316 16.403481,13.1161392 C16.5452532,13.1582278 16.6848101,13.2091772 16.8243671,13.2623418 C16.9041139,13.2933544 16.764557,13.2335443 16.8420886,13.2689873 C16.8731013,13.2822785 16.9018987,13.2955696 16.9329114,13.3110759 C17.0015823,13.3443038 17.0702532,13.3775316 17.1389241,13.4151899 C17.2541139,13.4772152 17.3670886,13.5458861 17.4756329,13.6212025 C17.5,13.6367089 17.5221519,13.6544304 17.546519,13.6721519 C17.628481,13.7297468 17.5,13.6322785 17.5598101,13.6810127 C17.6085443,13.7208861 17.6550633,13.7585443 17.7015823,13.8006329 C17.7924051,13.8825949 17.8787975,13.9712025 17.9585443,14.0642405 C17.9762658,14.0863924 17.9939873,14.1085443 18.0139241,14.128481 C18.0161392,14.1306962 18.0405063,14.1617089 18.0405063,14.1617089 C18.0382911,14.1639241 17.9873418,14.0886076 18.0139241,14.128481 C18.0493671,14.1794304 18.0870253,14.2281646 18.1202532,14.2813291 C18.1955696,14.3987342 18.2642405,14.5227848 18.3218354,14.6512658 C18.328481,14.664557 18.3329114,14.6800633 18.339557,14.6911392 C18.328481,14.6689873 18.3085443,14.6136076 18.328481,14.6689873 C18.3417722,14.7022152 18.3528481,14.735443 18.3661392,14.7686709 C18.3927215,14.8417722 18.4148734,14.9148734 18.4348101,14.9901899 C18.4547468,15.0610759 18.4724684,15.1341772 18.4857595,15.2072785 C18.4924051,15.2449367 18.5012658,15.2825949 18.5056962,15.3202532 C18.5079114,15.3357595 18.5101266,15.353481 18.514557,15.3689873 C18.5256329,15.4376582 18.503481,15.3623418 18.5123418,15.3512658 C18.5012658,15.364557 18.5234177,15.4509494 18.5256329,15.4686709 C18.5300633,15.5151899 18.5344937,15.5617089 18.5367089,15.6082278 C18.5411392,15.6968354 18.5433544,15.785443 18.5455696,15.8762658 C18.5455696,16.1088608 18.7493671,16.3303797 18.9886076,16.3193038 C19.2278481,16.3082278 19.4316456,16.1243671 19.4316456,15.8762658 C19.4294304,15.2338608 19.3031646,14.5914557 18.9952532,14.0221519 C18.7205696,13.5126582 18.2974684,13.0917722 17.8101266,12.7816456 C17.2696203,12.4382911 16.6405063,12.2300633 16.0136076,12.1148734 C15.2892405,11.981962 14.5427215,11.9443038 13.8072785,11.9908228 C12.9898734,12.0417722 12.1879747,12.1990506 11.4414557,12.5379747 C11.1778481,12.6575949 11.164557,13.0496835 11.3528481,13.2335443 C11.4237342,13.3022152 11.4924051,13.3753165 11.5566456,13.4484177 C11.585443,13.4816456 11.6142405,13.5170886 11.6408228,13.5503165 C11.6829114,13.6012658 11.5765823,13.4617089 11.6341772,13.5436709 C11.6518987,13.568038 11.6696203,13.5924051 11.6873418,13.6167722 C11.8025316,13.7829114 11.9044304,13.9601266 11.9863924,14.1439873 C11.993038,14.1617089 12.0063291,14.1816456 12.0107595,14.2015823 C11.9797468,14.0886076 12.0041139,14.1860759 12.0129747,14.2126582 C12.0306962,14.256962 12.0462025,14.3012658 12.0617089,14.3477848 C12.0993671,14.4563291 12.1303797,14.5648734 12.156962,14.6756329 C12.1813291,14.7753165 12.2012658,14.875 12.2167722,14.9746835 C12.2189873,14.9946203 12.2389241,15.1120253 12.2212025,14.9946203 C12.2256329,15.0167722 12.2278481,15.0411392 12.2300633,15.0655063 C12.2389241,15.1363924 12.2455696,15.2094937 12.25,15.2803797 C12.2699367,15.5860759 12.2610759,15.8939873 12.2610759,16.1996835 C12.2610759,17.2696203 12.2610759,18.3417722 12.2610759,19.4117089 C12.2610759,19.7107595 12.2610759,20.0098101 12.2610759,20.3088608 C12.2610759,20.6079114 12.5424051,20.7984177 12.821519,20.7363924 C14.9348101,20.2601266 16.8886076,19.1082278 18.3262658,17.4867089 C18.5367089,17.2496835 18.7360759,17.0015823 18.9265823,16.7468354 C19.0129747,16.6294304 19.0993671,16.5120253 19.1813291,16.3924051 C19.2876582,16.2373418 19.4272152,16.0734177 19.4272152,15.878481 C19.4272152,15.6458861 19.2234177,15.4243671 18.9841772,15.435443 C18.7471519,15.4443038 18.5455696,15.6281646 18.5455696,15.8762658 Z" id="Path"></path>
                                <path d="M16.4256329,8.82310127 C16.4256329,8.88512658 16.4234177,8.9471519 16.4189873,9.00917722 C16.4167722,9.04018987 16.4123418,9.07120253 16.4101266,9.1 C16.4012658,9.20632911 16.4300633,8.99810127 16.4101266,9.10221519 C16.3857595,9.2306962 16.3591772,9.35474684 16.3170886,9.47879747 C16.3037975,9.52088608 16.2882911,9.61392405 16.2550633,9.64493671 C16.2617089,9.62721519 16.2705696,9.60949367 16.2772152,9.59398734 C16.2683544,9.61170886 16.2617089,9.62943038 16.2528481,9.6471519 C16.239557,9.67373418 16.228481,9.70031646 16.2151899,9.72689873 C16.1620253,9.83101266 16.1022152,9.9306962 16.0335443,10.0259494 C16.0202532,10.0436709 16.0003165,10.0835443 15.9825949,10.0968354 C15.9936709,10.0813291 16.0047468,10.068038 16.0158228,10.0525316 C16.0047468,10.068038 15.9914557,10.0835443 15.9781646,10.0968354 C15.9405063,10.1411392 15.9028481,10.1832278 15.8629747,10.2253165 C15.8231013,10.2674051 15.7810127,10.3072785 15.7389241,10.3449367 C15.7167722,10.3648734 15.6946203,10.3825949 15.6724684,10.4025316 C15.656962,10.4158228 15.6436709,10.4268987 15.6281646,10.4401899 C15.6791139,10.4003165 15.6857595,10.3958861 15.6481013,10.4246835 C15.5617089,10.4867089 15.4731013,10.546519 15.3800633,10.5974684 C15.3291139,10.6262658 15.2759494,10.6528481 15.225,10.6772152 C15.2161392,10.6816456 15.2072785,10.6860759 15.1984177,10.6905063 C15.1541139,10.710443 15.1629747,10.7060127 15.2227848,10.6816456 C15.2028481,10.7015823 15.1408228,10.7148734 15.1120253,10.7237342 C14.9990506,10.7636076 14.8838608,10.7946203 14.7686709,10.8189873 C14.7398734,10.8256329 14.7088608,10.8300633 14.6800633,10.8344937 C14.5958861,10.85 14.7044304,10.8344937 14.7066456,10.8322785 C14.6712025,10.8610759 14.5382911,10.8477848 14.4917722,10.85 C14.3677215,10.8544304 14.2458861,10.8477848 14.1218354,10.8367089 C14.0155063,10.8278481 14.2237342,10.8566456 14.1196203,10.8367089 C14.0908228,10.8300633 14.0598101,10.8256329 14.0310127,10.8212025 C13.9623418,10.8079114 13.8936709,10.7901899 13.8272152,10.7724684 C13.7696203,10.756962 13.7142405,10.7370253 13.6588608,10.7170886 C13.6411392,10.710443 13.6212025,10.7037975 13.603481,10.6949367 C13.5060127,10.6594937 13.6943038,10.7392405 13.6012658,10.6927215 C13.4882911,10.6373418 13.3753165,10.5797468 13.2689873,10.5088608 C13.2291139,10.4822785 13.1515823,10.4468354 13.1272152,10.4091772 C13.1427215,10.4202532 13.1560127,10.4313291 13.171519,10.4424051 C13.1560127,10.4313291 13.1405063,10.418038 13.1272152,10.4047468 C13.1050633,10.3870253 13.0829114,10.3670886 13.0607595,10.3471519 C12.9743671,10.2696203 12.8946203,10.185443 12.8193038,10.0968354 C12.8126582,10.0901899 12.8060127,10.0813291 12.8015823,10.0746835 C12.7727848,10.0370253 12.7772152,10.0458861 12.8170886,10.0968354 C12.7971519,10.0835443 12.7794304,10.0458861 12.7661392,10.0259494 C12.7329114,9.97943038 12.6996835,9.9306962 12.6708861,9.87974684 C12.6398734,9.82879747 12.6110759,9.78006329 12.5844937,9.72689873 C12.5712025,9.70031646 12.5579114,9.67373418 12.5468354,9.6471519 C12.5379747,9.62943038 12.5313291,9.61170886 12.5224684,9.59398734 C12.5468354,9.65379747 12.5512658,9.66265823 12.5335443,9.61835443 C12.4958861,9.5164557 12.460443,9.41455696 12.4338608,9.30822785 C12.4183544,9.25063291 12.4072785,9.19082278 12.3962025,9.13101266 C12.3939873,9.1221519 12.3917722,9.11107595 12.3917722,9.10221519 C12.3851266,9.05348101 12.3851266,9.06234177 12.3939873,9.12879747 C12.378481,9.10664557 12.3829114,9.0335443 12.3829114,9.00696203 C12.3740506,8.88291139 12.3740506,8.75886076 12.3829114,8.63481013 C12.3851266,8.60379747 12.389557,8.57278481 12.3917722,8.54398734 C12.4006329,8.43765823 12.3718354,8.64588608 12.3917722,8.54177215 C12.4028481,8.47753165 12.4161392,8.41329114 12.4316456,8.35126582 C12.4582278,8.24050633 12.4958861,8.13417722 12.5357595,8.02563291 C12.5712025,7.92816456 12.4914557,8.1164557 12.5379747,8.02341772 C12.5512658,7.99683544 12.5623418,7.97025316 12.5756329,7.94367089 C12.6066456,7.88386076 12.6398734,7.82405063 12.6753165,7.76424051 C12.7063291,7.71550633 12.7373418,7.66677215 12.7705696,7.61803797 C12.7838608,7.60031646 12.8037975,7.56044304 12.821519,7.5471519 C12.810443,7.56265823 12.7993671,7.57594937 12.7882911,7.5914557 C12.7993671,7.57594937 12.8126582,7.56044304 12.8259494,7.5471519 C12.9012658,7.4585443 12.9810127,7.37436709 13.0674051,7.29683544 C13.089557,7.27689873 13.1117089,7.25917722 13.1338608,7.23924051 C13.1405063,7.23259494 13.1493671,7.22594937 13.1560127,7.22151899 C13.1936709,7.19272152 13.1848101,7.1971519 13.1338608,7.23702532 C13.160443,7.1971519 13.2357595,7.16170886 13.2756329,7.13734177 C13.381962,7.0664557 13.4927215,7.01107595 13.6079114,6.95348101 C13.7009494,6.90917722 13.5126582,6.98892405 13.6101266,6.95126582 C13.6278481,6.94462025 13.6477848,6.93797468 13.6655063,6.92911392 C13.7208861,6.90917722 13.7762658,6.88924051 13.8338608,6.87373418 C13.8914557,6.85601266 13.9490506,6.84272152 14.0066456,6.82943038 C14.035443,6.82278481 14.0664557,6.81835443 14.0952532,6.81170886 C14.1151899,6.80727848 14.1351266,6.80506329 14.1550633,6.8028481 C14.0863924,6.81170886 14.0775316,6.81392405 14.128481,6.80727848 C14.2525316,6.79620253 14.3743671,6.78955696 14.4984177,6.79398734 C14.560443,6.79620253 14.6202532,6.8028481 14.6822785,6.80727848 C14.7487342,6.81392405 14.6689873,6.79398734 14.6556962,6.8028481 C14.6712025,6.79177215 14.7553797,6.82056962 14.7753165,6.82278481 C14.910443,6.84936709 15.0455696,6.88924051 15.1740506,6.93797468 C15.1829114,6.94240506 15.1917722,6.94462025 15.2006329,6.94905063 C15.2449367,6.96677215 15.2360759,6.96455696 15.1762658,6.93797468 C15.1917722,6.93132911 15.2670886,6.98006329 15.2825949,6.98670886 C15.3424051,7.01772152 15.4022152,7.05094937 15.4620253,7.08639241 C15.5107595,7.11740506 15.5594937,7.14841772 15.6082278,7.18164557 C15.6259494,7.19493671 15.6658228,7.21487342 15.6791139,7.23259494 C15.6281646,7.19272152 15.621519,7.18829114 15.656962,7.21708861 C15.6724684,7.23037975 15.6857595,7.2414557 15.7012658,7.25474684 C15.8031646,7.34335443 15.8984177,7.43860759 15.9848101,7.54272152 C15.9914557,7.54936709 15.9981013,7.55822785 16.0025316,7.56487342 C16.0313291,7.60253165 16.0268987,7.59367089 15.9870253,7.54272152 C16.0136076,7.56044304 16.0379747,7.61139241 16.0556962,7.63575949 C16.0933544,7.69113924 16.1310127,7.74873418 16.1642405,7.8085443 C16.193038,7.85949367 16.2196203,7.91044304 16.2462025,7.96360759 C16.2506329,7.97468354 16.2860759,8.03227848 16.2838608,8.04335443 C16.2594937,7.9835443 16.2550633,7.97468354 16.2727848,8.01898734 C16.2794304,8.03670886 16.2860759,8.05664557 16.2949367,8.07436709 C16.3436709,8.20506329 16.3813291,8.34018987 16.4056962,8.47531646 C16.4079114,8.48860759 16.4278481,8.55506329 16.4212025,8.56392405 C16.4123418,8.49525316 16.4101266,8.48639241 16.4167722,8.53734177 C16.4189873,8.55727848 16.4212025,8.57721519 16.4234177,8.5971519 C16.4234177,8.67911392 16.4256329,8.75 16.4256329,8.82310127 C16.4278481,9.0556962 16.6294304,9.27721519 16.8686709,9.26613924 C17.1079114,9.25506329 17.3139241,9.07120253 17.3117266,8.82310127 C17.3050633,7.5914557 16.5253165,6.50601266 15.3756329,6.0806962 C14.2636076,5.66867089 12.9256329,6.02974684 12.1746835,6.94683544 C11.7781646,7.42974684 11.5455696,7.99905063 11.4946203,8.62373418 C11.4481013,9.21075949 11.5987342,9.82436709 11.9044304,10.3272152 C12.5468354,11.3860759 13.7962025,11.9132911 15.003481,11.6718354 C16.1398734,11.4458861 17.0879747,10.4712025 17.2674051,9.32373418 C17.2939873,9.15759494 17.3117266,8.9914557 17.3117266,8.82310127 C17.3139241,8.59050633 17.1079114,8.36898734 16.8686709,8.38006329 C16.6294304,8.39113924 16.4278481,8.575 16.4256329,8.82310127 Z" id="Path"></path>
                                <path d="M12.2632911,15.6148734 C12.2632911,16.1420886 12.2632911,16.671519 12.2632911,17.1987342 C12.2632911,18.0405063 12.2632911,18.8822785 12.2632911,19.7240506 C12.2632911,19.9189873 12.2632911,20.1117089 12.2632911,20.3066456 C12.3718354,20.1648734 12.4803797,20.0208861 12.5889241,19.8791139 C12.3518987,19.9322785 12.1148734,19.9765823 11.8756329,20.0120253 C11.8490506,20.0164557 11.8202532,20.0208861 11.7936709,20.0231013 C11.7139241,20.0341772 11.9,20.0098101 11.7670886,20.0275316 C11.7117089,20.0341772 11.6563291,20.0408228 11.6009494,20.0474684 C11.4746835,20.0607595 11.3484177,20.0718354 11.2243671,20.0806962 C10.7835443,20.1117089 10.3382911,20.1139241 9.89746835,20.089557 C9.69810127,20.078481 9.50094937,20.0607595 9.30379747,20.0363924 C9.25949367,20.031962 9.21297468,20.0253165 9.16867089,20.0186709 C9.28607595,20.0363924 9.14873418,20.0164557 9.11993671,20.0098101 C9.02025316,19.9943038 8.92056962,19.9787975 8.82088608,19.9610759 C8.43765823,19.8924051 8.06107595,19.8015823 7.68892405,19.6863924 C7.50949367,19.6310127 7.33227848,19.5734177 7.15727848,19.5091772 C7.06424051,19.4759494 6.97341772,19.4405063 6.88259494,19.4028481 C6.87151899,19.3984177 6.76740506,19.3474684 6.76075949,19.3541139 C6.76297468,19.3518987 6.86044304,19.3962025 6.77626582,19.3607595 C6.74525316,19.3474684 6.7164557,19.3341772 6.68544304,19.3208861 C6.34208861,19.1702532 6.00759494,18.9996835 5.68417722,18.8113924 C5.36297468,18.6253165 5.05063291,18.4193038 4.75158228,18.1977848 C4.71613924,18.1712025 4.68291139,18.1468354 4.64746835,18.1202532 C4.58322785,18.0737342 4.64968354,18.1224684 4.66075949,18.1313291 C4.63860759,18.1158228 4.61867089,18.0981013 4.59651899,18.0825949 C4.52120253,18.0227848 4.44588608,17.9607595 4.37056962,17.8987342 C4.22658228,17.7791139 4.08481013,17.6528481 3.94746835,17.5243671 C3.64620253,17.2408228 3.36044304,16.9417722 3.09462025,16.6227848 C3.02594937,16.5408228 2.95949367,16.4566456 2.89082278,16.3724684 C2.85316456,16.3237342 2.93734177,16.4344937 2.90189873,16.3857595 C2.88639241,16.3636076 2.86867089,16.3436709 2.85316456,16.321519 C2.81993671,16.2794304 2.78892405,16.2351266 2.75791139,16.1908228 C2.63164557,16.0158228 2.50981013,15.8386076 2.39462025,15.656962 C2.41455696,15.7322785 2.43449367,15.8053797 2.45443038,15.8806962 C2.45443038,15.7300633 2.45221519,15.5772152 2.45664557,15.4265823 C2.46107595,15.306962 2.46993671,15.189557 2.48322785,15.0699367 C2.48544304,15.0433544 2.4943038,15.0123418 2.4943038,14.9835443 C2.49651899,15.1031646 2.48987342,15.0256329 2.4943038,14.9879747 C2.50537975,14.9237342 2.5164557,14.8594937 2.52974684,14.7952532 C2.57405063,14.5781646 2.64050633,14.3699367 2.71803797,14.1639241 C2.75126582,14.0753165 2.67373418,14.2613924 2.71360759,14.175 C2.72468354,14.1528481 2.7335443,14.128481 2.74462025,14.1063291 C2.76234177,14.0686709 2.78006329,14.0310127 2.8,13.9933544 C2.84873418,13.8981013 2.90189873,13.8050633 2.95949367,13.7164557 C2.98607595,13.6765823 3.01265823,13.6344937 3.0414557,13.5946203 C3.06360759,13.5613924 3.17436709,13.4417722 3.07468354,13.5481013 C3.14556962,13.4727848 3.20759494,13.3863924 3.2806962,13.3110759 C3.3471519,13.2401899 3.41803797,13.1737342 3.48892405,13.1094937 C3.52436709,13.078481 3.56202532,13.0452532 3.59968354,13.0164557 C3.61962025,13.0009494 3.63734177,12.9876582 3.65727848,12.9699367 C3.54873418,13.0607595 3.63955696,12.985443 3.66613924,12.9655063 C3.8278481,12.8481013 3.99841772,12.7439873 4.17341772,12.6509494 C4.26424051,12.6022152 4.35727848,12.5579114 4.45031646,12.518038 C4.47468354,12.506962 4.49905063,12.4981013 4.52120253,12.4870253 C4.40379747,12.5446203 4.4835443,12.5025316 4.51234177,12.4914557 C4.56993671,12.4693038 4.62753165,12.4471519 4.68512658,12.425 C5.12151899,12.2677215 5.57563291,12.1636076 6.03196203,12.0949367 C6.07405063,12.0882911 6.13829114,12.1037975 6.02974684,12.0949367 C6.05189873,12.0971519 6.0806962,12.0882911 6.1028481,12.0860759 C6.15601266,12.0794304 6.21139241,12.0727848 6.26455696,12.0683544 C6.39303797,12.0550633 6.52373418,12.0439873 6.65221519,12.0351266 C6.91582278,12.0174051 7.17721519,12.0107595 7.44082278,12.0129747 C7.76867089,12.0151899 8.09873418,12.0306962 8.42436709,12.0639241 C8.49968354,12.0705696 8.57721519,12.0816456 8.65253165,12.0905063 C8.77879747,12.1060127 8.55949367,12.075 8.6835443,12.0949367 C8.72120253,12.1015823 8.75664557,12.1060127 8.7943038,12.1126582 C8.94050633,12.1348101 9.08449367,12.1636076 9.22848101,12.1946203 C9.5164557,12.2566456 9.8,12.3386076 10.0746835,12.4405063 C10.1389241,12.4648734 10.2031646,12.4870253 10.2651899,12.5158228 C10.1610759,12.4693038 10.2651899,12.5158228 10.2829114,12.5246835 C10.3139241,12.5379747 10.3427215,12.5512658 10.3737342,12.5667722 C10.5022152,12.6265823 10.628481,12.693038 10.7503165,12.7661392 C10.8167722,12.8060127 10.8832278,12.8481013 10.9474684,12.8901899 C10.9806962,12.9123418 11.0139241,12.9367089 11.0471519,12.9588608 C11.0693038,12.9743671 11.0914557,12.9898734 11.1113924,13.0075949 C11.0737342,12.9787975 11.0759494,12.9810127 11.1158228,13.0120253 C11.235443,13.1117089 11.3506329,13.2158228 11.456962,13.3287975 C11.503481,13.3797468 11.55,13.4306962 11.5943038,13.4838608 C11.6120253,13.5037975 11.6386076,13.5303797 11.6496835,13.5525316 C11.6098101,13.5015823 11.6053797,13.4949367 11.6341772,13.5348101 C11.6452532,13.5503165 11.6585443,13.5658228 11.6696203,13.5835443 C11.7515823,13.6987342 11.8246835,13.8183544 11.8911392,13.9424051 C11.9243671,14.0066456 11.9575949,14.0708861 11.9863924,14.1351266 C11.9974684,14.1617089 12.0506329,14.2414557 11.9908228,14.1439873 C12.0107595,14.1772152 12.0218354,14.2237342 12.0373418,14.2613924 C12.0905063,14.4031646 12.1325949,14.5493671 12.168038,14.6977848 C12.1857595,14.7753165 12.2012658,14.8528481 12.214557,14.9303797 C12.2212025,14.9636076 12.2300633,14.9990506 12.2300633,15.0322785 C12.2256329,14.910443 12.2344937,15.0655063 12.2367089,15.0898734 C12.2566456,15.2693038 12.2632911,15.4420886 12.2632911,15.6148734 C12.2632911,15.8474684 12.4670886,16.0689873 12.7063291,16.0579114 C12.9455696,16.0468354 13.1493671,15.8629747 13.1493671,15.6148734 C13.1449367,14.5648734 12.8392405,13.5392405 12.1237342,12.7528481 C11.3927215,11.9509494 10.3316456,11.5123418 9.28607595,11.3107595 C8.26265823,11.1136076 7.19493671,11.0803797 6.16044304,11.2022152 C5.30759494,11.3018987 4.46582278,11.5012658 3.70379747,11.9066456 C3.0193038,12.2699367 2.42341772,12.8193038 2.05791139,13.5082278 C1.67468354,14.2303797 1.5528481,15.0433544 1.57056962,15.8541139 C1.575,16.1044304 1.76993671,16.3259494 1.90949367,16.5253165 C2.06234177,16.7401899 2.22183544,16.9506329 2.38797468,17.1544304 C2.68259494,17.5177215 3.00379747,17.8588608 3.34493671,18.1778481 C4.05822785,18.8401899 4.86455696,19.4117089 5.73512658,19.8525316 C7.63575949,20.8161392 9.79778481,21.1816456 11.9088608,20.8981013 C12.2167722,20.8560127 12.5224684,20.8050633 12.8237342,20.7363924 C13.0120253,20.6943038 13.1493671,20.4971519 13.1493671,20.3088608 C13.1493671,19.7816456 13.1493671,19.2522152 13.1493671,18.725 C13.1493671,17.8832278 13.1493671,17.0414557 13.1493671,16.1996835 C13.1493671,16.0047468 13.1493671,15.8120253 13.1493671,15.6170886 C13.1493671,15.3844937 12.9455696,15.1629747 12.7063291,15.1740506 C12.4670886,15.1829114 12.2632911,15.3667722 12.2632911,15.6148734 Z" id="Path"></path>
                                <path d="M9.79556962,7.42974684 C9.79556962,7.5028481 9.79335443,7.57373418 9.78670886,7.64683544 C9.78449367,7.68227848 9.78006329,7.71772152 9.7778481,7.75316456 C9.76677215,7.86170886 9.79113924,7.67563291 9.77341772,7.78639241 C9.74905063,7.92816456 9.71582278,8.06993671 9.67151899,8.20727848 C9.65158228,8.26708861 9.62721519,8.32689873 9.60506329,8.38670886 C9.58512658,8.44208861 9.64050633,8.30917722 9.61613924,8.36234177 C9.60949367,8.37563291 9.60506329,8.38892405 9.59841772,8.40221519 C9.58291139,8.43765823 9.56518987,8.47310127 9.54746835,8.5085443 C9.48322785,8.63481013 9.41012658,8.75443038 9.33037975,8.86962025 C9.31487342,8.89177215 9.29272152,8.94050633 9.27056962,8.95158228 C9.26835443,8.95158228 9.32816456,8.8806962 9.29493671,8.91835443 C9.28164557,8.93386076 9.27056962,8.94936709 9.25727848,8.96265823 C9.21075949,9.01803797 9.16202532,9.07120253 9.11329114,9.12436709 C9.06898734,9.16867089 9.02468354,9.21297468 8.97816456,9.25506329 C8.95379747,9.27721519 8.92721519,9.29936709 8.9028481,9.32151899 C8.88734177,9.33481013 8.87405063,9.34588608 8.8585443,9.35917722 C8.80981013,9.39905063 8.87405063,9.35696203 8.8806962,9.34367089 C8.86297468,9.3835443 8.75221519,9.43670886 8.71455696,9.46107595 C8.65474684,9.50094937 8.59050633,9.53860759 8.52848101,9.57405063 C8.46867089,9.60727848 8.40886076,9.63829114 8.34683544,9.66708861 C8.3335443,9.67373418 8.32025316,9.67816456 8.30696203,9.68481013 C8.24936709,9.71139241 8.32246835,9.6914557 8.33132911,9.67373418 C8.32246835,9.68924051 8.23829114,9.70917722 8.22056962,9.71582278 C8.08987342,9.76234177 7.95696203,9.8 7.81962025,9.82879747 C7.78417722,9.83544304 7.75094937,9.84208861 7.71550633,9.84873418 C7.60253165,9.8664557 7.77974684,9.8443038 7.69778481,9.85094937 C7.62246835,9.85981013 7.54493671,9.8664557 7.46962025,9.86867089 C7.32120253,9.87531646 7.17056962,9.8664557 7.0221519,9.85094937 C6.93575949,9.84208861 7.10411392,9.86424051 7.01993671,9.85094937 C6.98006329,9.8443038 6.94018987,9.83765823 6.90253165,9.82879747 C6.83386076,9.81550633 6.76740506,9.79778481 6.69873418,9.78006329 C6.63227848,9.76234177 6.56582278,9.74018987 6.50158228,9.71582278 C6.46835443,9.70474684 6.43734177,9.68924051 6.40632911,9.67816456 C6.35759494,9.66265823 6.44841772,9.69367089 6.44398734,9.69367089 C6.43291139,9.69588608 6.39082278,9.6693038 6.37753165,9.66265823 C6.24905063,9.6028481 6.12721519,9.53417722 6.00981013,9.45886076 C5.9721519,9.43449367 5.86360759,9.3835443 5.84367089,9.3414557 C5.8414557,9.33924051 5.91234177,9.40126582 5.87689873,9.36582278 C5.86582278,9.35696203 5.85474684,9.34810127 5.84367089,9.33924051 C5.81487342,9.31487342 5.78386076,9.29050633 5.75506329,9.26392405 C5.65094937,9.17088608 5.55348101,9.06898734 5.46487342,8.96265823 C5.45601266,8.95158228 5.4471519,8.94050633 5.43829114,8.92943038 C5.38512658,8.86740506 5.44936709,8.94936709 5.45379747,8.95158228 C5.43386076,8.94272152 5.40506329,8.88734177 5.39398734,8.86962025 C5.35189873,8.80981013 5.31202532,8.75 5.27436709,8.68797468 C5.23892405,8.63037975 5.2056962,8.57056962 5.17689873,8.5085443 C5.16360759,8.48196203 5.15031646,8.45537975 5.13924051,8.42879747 C5.13037975,8.41107595 5.12373418,8.39335443 5.11487342,8.37563291 C5.08607595,8.31360759 5.11487342,8.39556962 5.12594937,8.4 C5.09493671,8.38449367 5.06613924,8.23829114 5.05506329,8.20727848 C5.03291139,8.13639241 5.01075949,8.06550633 4.99525316,7.99240506 C4.97974684,7.92373418 4.96424051,7.85506329 4.95316456,7.78639241 C4.93544304,7.68227848 4.95759494,7.85063291 4.95094937,7.76867089 C4.94651899,7.72879747 4.94208861,7.68670886 4.93987342,7.64683544 C4.92879747,7.5028481 4.92879747,7.35886076 4.93987342,7.21487342 C4.94208861,7.17943038 4.94651899,7.14398734 4.94873418,7.1085443 C4.96202532,6.99335443 4.93544304,7.17056962 4.95094937,7.09082278 C4.96424051,7.01772152 4.97753165,6.94240506 4.99525316,6.8693038 C5.01075949,6.8028481 5.0306962,6.73417722 5.05063291,6.66993671 C5.06170886,6.63670886 5.09493671,6.47721519 5.12594937,6.46170886 C5.12816456,6.46170886 5.08829114,6.54588608 5.11044304,6.49936709 C5.1193038,6.48164557 5.12594937,6.46392405 5.13481013,6.44620253 C5.14810127,6.41518987 5.16360759,6.38417722 5.17911392,6.35316456 C5.21012658,6.29335443 5.24335443,6.2335443 5.27658228,6.17373418 C5.31202532,6.11613924 5.34746835,6.0585443 5.38734177,6.00316456 C5.40727848,5.97658228 5.42721519,5.94778481 5.4471519,5.92120253 C5.48037975,5.87246835 5.39177215,5.98544304 5.43164557,5.94335443 C5.44493671,5.9278481 5.45601266,5.91234177 5.4693038,5.89905063 C5.55791139,5.79272152 5.65537975,5.69082278 5.75949367,5.59778481 C5.78386076,5.57563291 5.81044304,5.55348101 5.83702532,5.53132911 C5.84810127,5.52246835 5.85917722,5.51360759 5.87025316,5.50474684 C5.91012658,5.4693038 5.86582278,5.48481013 5.84810127,5.52025316 C5.87025316,5.47373418 5.98322785,5.42278481 6.02531646,5.39620253 C6.13829114,5.32310127 6.25791139,5.25664557 6.38196203,5.19905063 C6.39968354,5.19018987 6.41740506,5.1835443 6.43512658,5.17468354 C6.47943038,5.15253165 6.39525316,5.19240506 6.39746835,5.19018987 C6.40632911,5.17246835 6.47278481,5.16139241 6.49272152,5.15253165 C6.56139241,5.12816456 6.63227848,5.10379747 6.70316456,5.08386076 C6.76962025,5.06613924 6.83829114,5.04841772 6.90696203,5.03512658 C6.94240506,5.02848101 6.97563291,5.02183544 7.01107595,5.01518987 C7.11740506,4.99746835 6.9335443,5.02183544 7.0443038,5.01075949 C7.18829114,4.99525316 7.33227848,4.98860759 7.47626582,4.99525316 C7.5471519,4.99746835 7.62025316,5.00411392 7.69113924,5.01075949 C7.79525316,5.02183544 7.62911392,4.99968354 7.70886076,5.01297468 C7.74873418,5.01962025 7.78860759,5.02626582 7.82626582,5.03512658 C7.96803797,5.06392405 8.10537975,5.10379747 8.24050633,5.15253165 C8.25601266,5.15917722 8.32911392,5.17689873 8.33575949,5.19018987 C8.33797468,5.19240506 8.25158228,5.15031646 8.29810127,5.17468354 C8.31139241,5.18132911 8.32468354,5.18575949 8.33797468,5.19240506 C8.40443038,5.22341772 8.46867089,5.25664557 8.53291139,5.28987342 C8.59272152,5.32310127 8.65031646,5.3585443 8.70791139,5.39398734 C8.74778481,5.42056962 8.86518987,5.47594937 8.88512658,5.51803797 C8.88291139,5.51360759 8.80094937,5.44936709 8.86297468,5.50253165 C8.87405063,5.51139241 8.88512658,5.52025316 8.89620253,5.52911392 C8.92278481,5.55126582 8.9471519,5.57341772 8.97373418,5.59556962 C9.02689873,5.6443038 9.08006329,5.69303797 9.12879747,5.74620253 C9.17310127,5.79050633 9.21518987,5.83702532 9.25506329,5.88575949 C9.26613924,5.89683544 9.3414557,5.97879747 9.29272152,5.93006329 C9.24841772,5.88575949 9.29050633,5.9278481 9.30158228,5.94335443 C9.31265823,5.95886076 9.32373418,5.97436709 9.33481013,5.98987342 C9.41677215,6.10506329 9.48765823,6.22468354 9.55189873,6.35094937 C9.56740506,6.38196203 9.58291139,6.41297468 9.59620253,6.44398734 C9.6028481,6.45727848 9.60727848,6.47056962 9.61392405,6.48386076 C9.64936709,6.55917722 9.60506329,6.45949367 9.6028481,6.45949367 C9.63386076,6.475 9.66708861,6.63227848 9.67816456,6.66772152 C9.72246835,6.80506329 9.75348101,6.94683544 9.7778481,7.08860759 C9.79335443,7.17278481 9.76898734,7.00443038 9.7778481,7.09082278 C9.78227848,7.12626582 9.78449367,7.16170886 9.78892405,7.1971519 C9.79335443,7.27689873 9.79556962,7.35221519 9.79556962,7.42974684 C9.79778481,7.66234177 9.99936709,7.88386076 10.2386076,7.87278481 C10.4778481,7.86170886 10.6838608,7.6778481 10.6816633,7.42974684 C10.6772152,6.7585443 10.4778481,6.0806962 10.0857595,5.5335443 C9.68037975,4.9664557 9.13322785,4.54556962 8.48196203,4.30411392 C7.20601266,3.83006329 5.67753165,4.24208861 4.81803797,5.2943038 C4.37056962,5.8414557 4.10474684,6.49050633 4.0471519,7.1971519 C3.99398734,7.86835443 4.16455696,8.56613924 4.51455696,9.14208861 C4.85126582,9.69810127 5.36075949,10.1677215 5.95664557,10.4357595 C6.61455696,10.7325949 7.33006329,10.8189873 8.04113924,10.6772152 C9.34588608,10.418038 10.4291139,9.30601266 10.6329114,7.98797468 C10.6617089,7.80189873 10.6816633,7.61582278 10.6816633,7.42753165 C10.6838608,7.19493671 10.4778481,6.97341772 10.2386076,6.98449367 C9.9971519,6.99778481 9.79556962,7.18164557 9.79556962,7.42974684 Z" id="Path"></path>
                                <path d="M20.1072785,10.5 C20.1072785,10.814557 20.0939873,11.1268987 20.0629747,11.4392405 C20.0563291,11.5167722 20.0474684,11.5943038 20.0386076,11.6696203 C20.0341772,11.7072785 20.0297468,11.7471519 20.0253165,11.7848101 C20.0231013,11.8025316 20.0120253,11.8712025 20.0253165,11.7825949 C20.0009494,11.946519 19.9743671,12.110443 19.9433544,12.2743671 C19.8325949,12.8547468 19.6708861,13.4262658 19.4582278,13.9800633 C19.4338608,14.0443038 19.4094937,14.1085443 19.3829114,14.1705696 C19.3718354,14.1993671 19.3585443,14.2281646 19.3474684,14.256962 C19.3873418,14.1594937 19.3386076,14.2746835 19.3341772,14.2879747 C19.2743671,14.4253165 19.2123418,14.5582278 19.1458861,14.6933544 C19.0151899,14.9591772 18.8734177,15.2183544 18.7205696,15.4731013 C18.5787975,15.7079114 18.4259494,15.9382911 18.2642405,16.1620253 C18.2310127,16.2063291 18.1977848,16.2528481 18.164557,16.2971519 C18.1446203,16.3237342 18.1246835,16.3525316 18.1047468,16.3768987 C18.1756329,16.2905063 18.1025316,16.3791139 18.0914557,16.3924051 C18.0094937,16.4987342 17.9231013,16.6028481 17.8367089,16.7047468 C17.4955696,17.1056962 17.1234177,17.4778481 16.7246835,17.8189873 C16.6227848,17.9053797 16.5186709,17.9917722 16.414557,18.0759494 C16.3990506,18.0870253 16.310443,18.1601266 16.3990506,18.0892405 C16.3813291,18.1025316 16.3636076,18.1158228 16.3458861,18.1291139 C16.2838608,18.1756329 16.2196203,18.2221519 16.1575949,18.2686709 C15.9382911,18.4259494 15.714557,18.5743671 15.4841772,18.7139241 C15.2626582,18.8490506 15.0367089,18.9731013 14.8041139,19.0905063 C14.6822785,19.1525316 14.560443,19.2101266 14.4363924,19.2655063 C14.385443,19.2898734 14.3322785,19.3120253 14.2813291,19.3341772 C14.2636076,19.3408228 14.1572785,19.389557 14.2613924,19.343038 C14.2193038,19.3607595 14.1772152,19.378481 14.1351266,19.3939873 C13.6344937,19.5955696 13.1183544,19.7550633 12.5933544,19.8724684 C12.4449367,19.9056962 12.296519,19.9344937 12.1481013,19.9610759 C12.0661392,19.9765823 11.9841772,19.9898734 11.9022152,20.0009494 C11.8601266,20.0075949 11.8202532,20.0142405 11.7781646,20.0186709 C11.8734177,20.0053797 11.7050633,20.0275316 11.689557,20.0297468 C11.3683544,20.0674051 11.0427215,20.089557 10.7193038,20.0962025 C10.4291139,20.1028481 10.1389241,20.0962025 9.84873418,20.078481 C9.72468354,20.0696203 9.59841772,20.0607595 9.47436709,20.0474684 C9.4056962,20.0408228 9.33924051,20.031962 9.27278481,20.0253165 C9.23955696,20.0208861 9.20632911,20.0164557 9.17088608,20.0120253 C9.29050633,20.0297468 9.17310127,20.0120253 9.15537975,20.0098101 C8.62816456,19.9322785 8.10537975,19.8126582 7.59588608,19.6531646 C7.35443038,19.5778481 7.11740506,19.4914557 6.88481013,19.3984177 C6.85379747,19.3851266 6.825,19.3740506 6.79398734,19.3607595 C6.68987342,19.3186709 6.88259494,19.3984177 6.77848101,19.3541139 C6.72310127,19.3297468 6.66772152,19.3053797 6.61455696,19.2810127 C6.49050633,19.2256329 6.36867089,19.168038 6.24683544,19.1060127 C5.79272152,18.8800633 5.35632911,18.6186709 4.93987342,18.3240506 C4.84240506,18.2553797 4.7471519,18.1844937 4.65411392,18.1136076 C4.56550633,18.0471519 4.72943038,18.1734177 4.64082278,18.1047468 C4.6164557,18.0848101 4.58987342,18.0648734 4.56550633,18.0449367 C4.5056962,17.9984177 4.44810127,17.9496835 4.39050633,17.9031646 C4.2,17.7458861 4.01613924,17.5797468 3.83892405,17.4091772 C3.6528481,17.2297468 3.47563291,17.0436709 3.3028481,16.8509494 C3.22531646,16.7623418 3.14778481,16.6737342 3.07246835,16.5806962 C3.03037975,16.531962 2.99050633,16.4810127 2.95063291,16.4300633 C2.9306962,16.4056962 2.9085443,16.3813291 2.89082278,16.3547468 C2.9306962,16.414557 2.91075949,16.3813291 2.88196203,16.3414557 C2.54746835,15.9028481 2.25063291,15.435443 1.99367089,14.9481013 C1.92943038,14.828481 1.86962025,14.7066456 1.80981013,14.5825949 C1.77879747,14.5161392 1.74556962,14.4474684 1.71677215,14.3810127 C1.7056962,14.3588608 1.69683544,14.3367089 1.68575949,14.3123418 C1.67911392,14.2946203 1.61487342,14.1484177 1.65696203,14.2458861 C1.54177215,13.9689873 1.43765823,13.6876582 1.34683544,13.4018987 C1.26044304,13.125 1.18512658,12.8458861 1.12088608,12.5623418 C1.08765823,12.4139241 1.05886076,12.2632911 1.03227848,12.1126582 C1.02120253,12.0506329 1.01012658,11.9863924 1.00126582,11.9243671 C0.994620253,11.8867089 0.990189873,11.8490506 0.983544304,11.8091772 C0.976898734,11.7582278 0.976898734,11.7582278 0.983544304,11.8113924 C0.979113924,11.7848101 0.976898734,11.760443 0.974683544,11.7338608 C0.903797468,11.164557 0.88164557,10.5908228 0.908227848,10.0193038 C0.919303797,9.77341772 0.939240506,9.52753165 0.968037975,9.28386076 C0.972468354,9.2528481 0.974683544,9.22405063 0.979113924,9.19303797 C0.983544304,9.15981013 0.972468354,9.12436709 0.974683544,9.21962025 C0.972468354,9.16202532 0.992405063,9.09556962 1.00126582,9.04018987 C1.01898734,8.92056962 1.04113924,8.80094937 1.06329114,8.6835443 C1.15411392,8.21835443 1.27594937,7.75981013 1.43101266,7.31455696 C1.46867089,7.20822785 1.50632911,7.10189873 1.54841772,6.99556962 C1.56835443,6.94462025 1.58829114,6.89367089 1.60822785,6.84493671 C1.61708861,6.82278481 1.62594937,6.79841772 1.63702532,6.77626582 C1.64367089,6.7585443 1.65253165,6.74082278 1.65917722,6.72088608 C1.63259494,6.7806962 1.63037975,6.78955696 1.64810127,6.74525316 C1.74335443,6.53037975 1.84082278,6.31772152 1.94936709,6.10727848 C2.15981013,5.70189873 2.39683544,5.30981013 2.66044304,4.93544304 C2.72246835,4.84905063 2.78449367,4.76265823 2.84873418,4.67626582 C2.8664557,4.65411392 2.88417722,4.62974684 2.90189873,4.60759494 C2.96392405,4.52563291 2.83987342,4.68512658 2.90411392,4.60537975 C2.94398734,4.55664557 2.98164557,4.5056962 3.02151899,4.45696203 C3.16550633,4.27974684 3.31392405,4.10917722 3.46898734,3.94303797 C3.77911392,3.61075949 4.11139241,3.29841772 4.46360759,3.01265823 C4.50791139,2.975 4.55443038,2.93955696 4.59873418,2.90411392 C4.61867089,2.88860759 4.68955696,2.81993671 4.60094937,2.90189873 C4.62310127,2.88196203 4.64746835,2.8664557 4.66962025,2.84873418 C4.76265823,2.7778481 4.8556962,2.70917722 4.95094937,2.64272152 C5.13702532,2.51202532 5.32974684,2.38575949 5.52468354,2.26835443 C5.92120253,2.02689873 6.33544304,1.81867089 6.76075949,1.63259494 C6.85158228,1.59272152 6.68987342,1.66139241 6.74968354,1.63702532 C6.77183544,1.62816456 6.79398734,1.61708861 6.81835443,1.60822785 C6.87373418,1.58607595 6.92689873,1.56392405 6.98227848,1.54177215 C7.09303797,1.49968354 7.20379747,1.45759494 7.31455696,1.41993671 C7.53829114,1.34240506 7.7664557,1.27151899 7.99683544,1.20949367 C8.21835443,1.14968354 8.4443038,1.09651899 8.66803797,1.05221519 C8.78765823,1.0278481 8.90506329,1.00791139 9.02468354,0.987974684 C9.07563291,0.979113924 9.12436709,0.972468354 9.17531646,0.965822785 C9.20632911,0.961392405 9.29493671,0.932594937 9.17753165,0.965822785 C9.21518987,0.954746835 9.25949367,0.954746835 9.29936709,0.950316456 C9.78006329,0.892721519 10.2674051,0.87056962 10.7525316,0.88164557 C11.0006329,0.888291139 11.246519,0.901582278 11.4924051,0.925949367 C11.5987342,0.937025316 11.7227848,0.934810127 11.8268987,0.963607595 C11.7094937,0.930379747 11.7981013,0.959177215 11.8291139,0.963607595 C11.8601266,0.968037975 11.8889241,0.972468354 11.9199367,0.976898734 C11.9797468,0.985759494 12.039557,0.996835443 12.0993671,1.0056962 C12.5712025,1.08765823 13.0386076,1.2028481 13.4949367,1.35126582 C13.7098101,1.4221519 13.9246835,1.49968354 14.1351266,1.58386076 C14.1617089,1.59493671 14.1905063,1.60601266 14.2170886,1.61708861 C14.2503165,1.63037975 14.3278481,1.6414557 14.2193038,1.61708861 C14.2724684,1.62816456 14.3300633,1.66582278 14.3810127,1.68797468 C14.4873418,1.73670886 14.5936709,1.78544304 14.7,1.83860759 C15.1098101,2.04018987 15.5085443,2.27056962 15.8873418,2.52531646 C15.9759494,2.58512658 16.0623418,2.64493671 16.1509494,2.70917722 C16.1974684,2.74240506 16.2439873,2.7778481 16.2905063,2.81329114 C16.3148734,2.83101266 16.3370253,2.84873418 16.3591772,2.8664557 C16.3746835,2.87753165 16.3901899,2.89082278 16.4056962,2.90189873 C16.3547468,2.86202532 16.3481013,2.85759494 16.3857595,2.88639241 C16.5607595,3.02594937 16.7313291,3.16772152 16.8974684,3.31613924 C17.2363924,3.61962025 17.5531646,3.94525316 17.8477848,4.29303797 C17.9231013,4.38164557 17.9962025,4.47025316 18.0693038,4.56329114 C18.0848101,4.58322785 18.1136076,4.60759494 18.1224684,4.63196203 C18.118038,4.62310127 18.060443,4.55 18.106962,4.61202532 C18.1490506,4.66518987 18.1889241,4.72056962 18.2287975,4.77373418 C18.3661392,4.96202532 18.4968354,5.15474684 18.6231013,5.35189873 C18.8689873,5.73955696 19.0860759,6.14272152 19.2765823,6.56139241 C19.296519,6.6056962 19.3164557,6.65 19.3363924,6.69651899 C19.3474684,6.72088608 19.3651899,6.75189873 19.3718354,6.77848101 C19.3496835,6.66993671 19.3585443,6.74746835 19.3718354,6.7806962 C19.4161392,6.88924051 19.460443,7 19.5003165,7.11075949 C19.5822785,7.33227848 19.6575949,7.55822785 19.7240506,7.78639241 C19.856962,8.23829114 19.9566456,8.70126582 20.0231013,9.1664557 C20.0275316,9.19746835 20.0563291,9.28607595 20.0231013,9.16867089 C20.031962,9.19746835 20.031962,9.2306962 20.0341772,9.25949367 C20.0408228,9.31487342 20.0474684,9.37025316 20.0541139,9.42563291 C20.0674051,9.54303797 20.0762658,9.66044304 20.0851266,9.7778481 C20.1006329,10.0237342 20.1072785,10.2607595 20.1072785,10.5 C20.1072785,10.7325949 20.3110759,10.9541139 20.5503165,10.943038 C20.789557,10.931962 20.9933544,10.7481013 20.9933544,10.5 C20.9911392,8.50411392 20.4196203,6.5193038 19.3363924,4.83797468 C18.293038,3.21867089 16.8044304,1.88291139 15.0632911,1.04778481 C13.2401899,0.17278481 11.1822785,-0.17056962 9.17531646,0.0908227848 C7.19050633,0.35 5.33196203,1.16075949 3.78797468,2.43449367 C2.28829114,3.675 1.1585443,5.34303797 0.540506329,7.18829114 C-0.17056962,9.30822785 -0.17056962,11.6718354 0.533860759,13.7939873 C1.25601266,15.9670886 2.68481013,17.8544304 4.56550633,19.156962 C6.39082278,20.4196203 8.62373418,21.0642405 10.8411392,20.9911392 C13.2556962,20.9113924 15.5772152,19.9898734 17.4003165,18.4082278 C19.1724684,16.8686709 20.4063291,14.7132911 20.8205696,12.4006329 C20.9335443,11.7737342 20.9933544,11.1379747 20.9933544,10.5022152 C20.9933544,10.2696203 20.789557,10.0481013 20.5503165,10.0591772 C20.3110759,10.068038 20.1094937,10.2518987 20.1072785,10.5 Z" id="Path"></path>
                            </g>
                        </g>
                    </g>
                </g>
            </g>
        </g>
    </g>
</svg>