<svg width="13" height="13" viewBox="0 0 13 13" fill="none" xmlns="http://www.w3.org/2000/svg">
<path d="M12.5286 0.623666L9.89312 0.0154787C9.60677 -0.0504082 9.31281 0.0991044 9.19624 0.36772L7.97987 3.20593C7.87344 3.45427 7.94439 3.74569 8.15472 3.91548L9.6904 5.1724C8.77811 7.11606 7.18416 8.73283 5.19995 9.66285L3.94303 8.12717C3.77071 7.91684 3.48182 7.84589 3.23348 7.95232L0.395269 9.1687C0.124119 9.2878 -0.0253939 9.58176 0.040493 9.86811L0.64868 12.5036C0.712033 12.7773 0.955308 12.9749 1.24166 12.9749C7.73153 12.9749 12.9999 7.71665 12.9999 1.21665C12.9999 0.932828 12.8048 0.687019 12.5286 0.623666Z" fill="black"/>
</svg>
