<?xml version="1.0" standalone="no"?>
<!DOCTYPE svg PUBLIC "-//W3C//DTD SVG 20010904//EN"
 "http://www.w3.org/TR/2001/REC-SVG-20010904/DTD/svg10.dtd">
<svg version="1.0" xmlns="http://www.w3.org/2000/svg"
 width="617.000000pt" height="477.000000pt" viewBox="0 0 617.000000 477.000000"
 preserveAspectRatio="xMidYMid meet">
<metadata>
Created by potrace 1.14, written by Peter Selinger 2001-2017
</metadata>
<g transform="translate(0.000000,477.000000) scale(0.100000,-0.100000)"
fill="#000000" stroke="none">
<path d="M2820 4763 c-32 -12 -60 -47 -60 -75 0 -21 -13 -41 -46 -75 -25 -25
-60 -69 -76 -97 -57 -96 -297 -350 -341 -361 -15 -4 -27 -11 -27 -15 0 -19
101 -93 175 -130 l80 -39 80 14 c120 21 158 36 174 72 8 17 25 36 38 42 41 19
131 102 137 127 4 13 19 30 34 38 15 8 46 37 70 65 42 50 43 52 40 119 -1 37
1 73 5 80 14 21 -22 70 -79 108 -31 20 -58 44 -61 53 -3 9 -20 31 -36 49 -30
31 -66 40 -107 25z"/>
<path d="M1632 3894 c-263 -41 -563 -172 -805 -351 -117 -88 -302 -264 -390
-373 -200 -248 -341 -537 -409 -840 -32 -146 -32 -387 0 -537 110 -510 441
-906 878 -1052 166 -55 239 -66 459 -65 235 1 362 20 558 84 415 135 765 412
1029 815 221 337 319 649 304 970 -30 670 -388 1167 -946 1316 -183 49 -481
63 -678 33z m398 -250 c185 -35 334 -110 462 -232 349 -334 444 -953 232
-1520 -193 -517 -603 -877 -1125 -989 -61 -13 -125 -18 -234 -17 -173 1 -250
17 -390 83 -108 51 -163 89 -254 175 -284 273 -375 676 -265 1175 122 551 479
1014 949 1231 222 103 423 133 625 94z"/>
<path d="M5157 3654 c-14 -4 -17 -12 -13 -27 20 -69 27 -140 22 -204 -4 -40
-70 -470 -147 -955 -77 -486 -147 -929 -156 -986 -9 -56 -17 -101 -19 -100 -1
2 -83 129 -181 283 -242 379 -534 826 -650 993 -163 234 -189 254 -356 260
l-108 4 8 -43 c15 -86 8 -309 -15 -444 -12 -71 -42 -276 -67 -455 -25 -179
-65 -446 -89 -595 -25 -148 -42 -273 -39 -278 3 -6 40 -7 83 -4 137 9 231 70
271 176 43 116 102 465 144 856 9 83 17 154 19 159 1 5 125 -191 276 -435 554
-899 579 -938 612 -955 47 -24 188 -15 248 15 54 28 106 75 127 116 33 63 219
1067 297 1600 65 447 88 796 58 886 -26 76 -121 130 -237 135 -38 2 -78 0 -88
-2z"/>
<path d="M5925 3651 c-67 -17 -70 -22 -67 -108 2 -54 -5 -119 -23 -212 -36
-181 -26 -201 106 -201 143 0 214 88 225 282 6 91 4 109 -13 149 -13 29 -33
54 -57 68 -39 24 -122 35 -171 22z"/>
<path d="M5784 2829 c-1 -105 -1 -106 -228 -1404 -30 -170 -52 -313 -49 -317
8 -14 119 -8 169 9 74 25 152 108 192 205 63 150 205 959 227 1283 8 127 -6
200 -47 243 -51 53 -103 75 -188 80 l-75 4 -1 -103z"/>
<path d="M227 419 c-21 -11 -42 -31 -47 -45 -11 -29 -13 -181 -4 -273 6 -54
10 -62 31 -67 14 -4 122 -1 241 5 128 7 555 13 1042 13 l825 2 139 -27 c172
-33 181 -33 202 -2 13 20 15 35 8 73 -5 26 -6 83 -2 127 10 116 11 115 -80
115 -56 0 -106 8 -182 30 -142 41 -198 47 -250 26 -48 -19 -159 -21 -207 -4
-27 10 -38 10 -55 -1 -35 -22 -180 -27 -230 -8 -36 14 -59 15 -143 7 -55 -5
-344 -14 -642 -21 l-543 -13 -25 24 c-14 13 -25 29 -25 36 0 22 -14 23 -53 3z"/>
<path d="M3925 346 c-17 -7 -35 -19 -41 -27 -35 -44 -16 -117 38 -145 52 -26
60 -35 47 -50 -15 -19 -49 -18 -78 3 -23 16 -25 15 -47 -12 -21 -26 -22 -31
-8 -46 8 -9 34 -22 58 -29 87 -24 160 20 160 96 0 39 -24 68 -77 96 -21 10
-37 24 -35 30 7 21 45 27 74 12 28 -15 30 -14 51 12 26 33 22 41 -23 60 -41
17 -80 17 -119 0z"/>
<path d="M4323 345 c-37 -16 -53 -42 -53 -87 0 -41 12 -58 68 -92 24 -15 42
-32 39 -39 -6 -19 -56 -20 -83 -2 -24 15 -26 15 -44 -7 -27 -32 -25 -45 13
-65 75 -39 172 -11 191 55 13 45 -7 83 -59 114 -25 15 -45 34 -45 42 0 20 33
25 68 10 29 -12 33 -11 52 13 23 30 19 40 -26 59 -42 17 -80 17 -121 -1z"/>
<path d="M5984 344 c-39 -19 -56 -51 -52 -94 2 -28 13 -42 53 -72 28 -21 50
-43 50 -50 0 -19 -53 -22 -79 -4 -22 14 -25 13 -45 -8 -28 -30 -27 -43 7 -60
95 -48 202 -9 202 76 0 43 -14 63 -65 92 -49 29 -55 40 -27 55 12 6 28 5 51
-5 31 -13 34 -12 52 9 26 31 24 41 -16 60 -44 21 -90 21 -131 1z"/>
<path d="M2987 203 c-15 -81 -27 -151 -27 -155 0 -12 155 -9 187 3 69 26 113
95 113 179 0 41 -5 55 -29 82 -29 32 -32 33 -123 36 l-93 4 -28 -149z m177 61
c9 -8 16 -31 16 -51 0 -48 -54 -103 -100 -103 -32 0 -32 1 -25 38 24 132 24
132 60 132 19 0 41 -7 49 -16z"/>
<path d="M3482 303 c-6 -27 -18 -88 -27 -138 -9 -50 -19 -98 -21 -107 -5 -16
4 -18 100 -18 78 0 106 3 106 13 0 6 3 22 6 35 6 21 4 22 -58 22 -64 0 -65 0
-60 25 4 23 9 25 52 25 49 0 60 9 60 51 0 16 -7 19 -45 19 -41 0 -45 2 -45 25
0 24 2 25 65 25 45 0 65 4 65 13 0 6 3 22 6 35 6 22 5 22 -94 22 l-100 0 -10
-47z"/>
<path d="M4700 347 c0 -2 -13 -71 -30 -152 -16 -81 -30 -150 -30 -152 0 -1 47
-3 105 -3 97 0 105 1 105 19 0 11 3 26 6 35 5 14 -4 16 -61 16 -57 0 -66 2
-61 16 3 9 6 20 6 25 0 5 22 9 49 9 42 0 49 3 55 23 11 43 8 47 -39 47 -41 0
-45 2 -45 25 0 24 2 25 65 25 45 0 65 4 65 13 0 6 3 22 6 35 6 22 5 22 -95 22
-55 0 -101 -2 -101 -3z"/>
<path d="M5077 212 c-35 -180 -36 -174 11 -170 36 3 37 4 46 56 12 72 36 71
60 -3 17 -54 17 -55 57 -55 21 0 39 4 39 8 0 5 -9 34 -19 65 -11 32 -16 57
-10 57 18 0 49 65 49 102 0 63 -24 78 -123 78 l-83 0 -27 -138z"/>
<path d="M5500 338 c0 -7 -3 -23 -6 -35 -6 -21 -3 -23 40 -23 54 0 53 6 26
-125 -11 -53 -20 -101 -20 -106 0 -5 18 -9 39 -9 l39 0 22 120 22 120 48 0
c41 0 49 3 54 23 13 47 13 47 -129 47 -101 0 -135 -3 -135 -12z"/>
</g>
</svg>
